<?xml version="1.0" encoding="utf-8"?>
<!-- Generator: Adobe Illustrator 20.0.0, SVG Export Plug-In . SVG Version: 6.00 Build 0)  -->
<svg version="1.1" id="Layer_1" xmlns="http://www.w3.org/2000/svg" xmlns:xlink="http://www.w3.org/1999/xlink" x="0px" y="0px"
	 viewBox="0 0 277.9 426.1" style="enable-background:new 0 0 277.9 426.1;" xml:space="preserve">
<style type="text/css">
	.st0{fill:#EA8F2D;}
	.st1{fill:#FFFFFF;}
	.st2{fill:#FF4800;}
	.st3{fill:#F7F776;}
	.st4{fill:#FCAC4C;}
	.st5{fill:#D17B1E;}
	.st6{fill:#A35611;}
	.st7{fill:#FFCBA1;}
</style>
<g>
	<g>
		<path d="M169.3,254.7H101c-72.6,0-66.3,110.9-66.3,110.9v60h200.8v-60C235.5,365.7,241.8,254.7,169.3,254.7z"/>
	</g>
	<g>
		<polygon class="st0" points="101.4,239 101,254.7 169.8,254.7 169.4,238.7 		"/>
	</g>
	<g>
		<polygon class="st1" points="101,254.7 134.1,354.3 169.8,254.7 		"/>
	</g>
	<g>
		<path class="st2" d="M117.4,304.1l16.7,50.7l16.5-46.2c-5.1-10.9-15.3-33.1-15.3-33.1l17.3-20.8h-38l13.9,21.5L117.4,304.1z"/>
	</g>
	<g>
		<path class="st3" d="M48.4,127.8L46.1,44c0,0,0-35.5,36.1-40.8s126.3-2.4,126.3-2.4v25.4h18l1.2,98.8l-58.4,20.4L53,142
			L48.4,127.8z"/>
	</g>
	<g>
		<polygon class="st4" points="60.6,78.5 61,240.5 215,241.3 213.4,69.7 		"/>
	</g>
	<g>
		<path class="st4" d="M213.1,131.5c0,0,12.7-20.7,28-11.1s-12.3,66.8-28,49.9S213.1,131.5,213.1,131.5z"/>
	</g>
	<g>
		<path class="st4" d="M58.9,138c0,0-10-18.7-22.4-10.3s9.1,59.9,22,45S58.9,138,58.9,138z"/>
	</g>
	<g>
		<path class="st3" d="M213.4,66.2c0,0-43.4,47.2-153.9,29.6l-1.9-26.1L213.4,66.2z"/>
	</g>
	<g>
		<g>
			<path class="st1" d="M91.5,88.4c-0.2,0-0.5-0.1-0.7-0.3C77.5,75.5,70.6,42.6,70.3,41.2c-0.1-0.5,0.2-1.1,0.8-1.2
				c0.5-0.1,1.1,0.2,1.2,0.8c0.1,0.3,7.1,33.6,19.9,45.9c0.4,0.4,0.4,1,0,1.4C92,88.3,91.8,88.4,91.5,88.4z"/>
		</g>
		<g>
			<path class="st1" d="M112.2,88.4c-0.3,0-0.5-0.1-0.7-0.3C98.3,75.1,92.2,47.4,91.9,46.2c-0.1-0.5,0.2-1.1,0.8-1.2
				c0.5-0.1,1.1,0.2,1.2,0.8c0.1,0.3,6.3,28.3,19,40.9c0.4,0.4,0.4,1,0,1.4C112.7,88.3,112.5,88.4,112.2,88.4z"/>
		</g>
		<g>
			<path class="st1" d="M135.2,90c-0.3,0-0.5-0.1-0.7-0.3c-13.5-13.1-26.7-46.9-27.2-48.4c-0.2-0.5,0.1-1.1,0.6-1.3
				c0.5-0.2,1.1,0.1,1.3,0.6c0.1,0.3,13.6,34.8,26.8,47.6c0.4,0.4,0.4,1,0,1.4C135.7,89.9,135.5,90,135.2,90z"/>
		</g>
		<g>
			<path class="st1" d="M152.4,86.6c-0.3,0-0.5-0.1-0.7-0.3c-15.5-17.2-30-50.3-30.2-50.7c-0.2-0.5,0-1.1,0.5-1.3
				c0.5-0.2,1.1,0,1.3,0.5c0.1,0.3,14.5,33.2,29.8,50.1c0.4,0.4,0.3,1-0.1,1.4C152.9,86.5,152.6,86.6,152.4,86.6z"/>
		</g>
		<g>
			<path class="st1" d="M165.3,80.8c-0.3,0-0.5-0.1-0.7-0.3c-16.2-18-25.4-43.7-25.5-43.9c-0.2-0.5,0.1-1.1,0.6-1.3
				c0.5-0.2,1.1,0.1,1.3,0.6c0.1,0.3,9.1,25.5,25.1,43.3c0.4,0.4,0.3,1-0.1,1.4C165.8,80.7,165.5,80.8,165.3,80.8z"/>
		</g>
		<g>
			<path class="st1" d="M178.3,75c-0.3,0-0.5-0.1-0.7-0.3C164.2,60.6,153,37.2,152.9,37c-0.2-0.5,0-1.1,0.5-1.3
				c0.5-0.2,1.1,0,1.3,0.5c0.1,0.2,11.2,23.3,24.3,37.2c0.4,0.4,0.4,1,0,1.4C178.8,74.9,178.6,75,178.3,75z"/>
		</g>
		<g>
			<path class="st1" d="M183.7,60.6c-0.3,0-0.5-0.1-0.7-0.3c-3.2-3.6-13.8-20.5-14.3-21.2c-0.3-0.5-0.2-1.1,0.3-1.4
				c0.5-0.3,1.1-0.2,1.4,0.3c0.1,0.2,11,17.5,14.1,21c0.4,0.4,0.3,1-0.1,1.4C184.2,60.5,183.9,60.6,183.7,60.6z"/>
		</g>
	</g>
	<g>
		<path class="st5" d="M89.3,134.4c-7.8,0-13.8-7-14-7.3c-0.4-0.4-0.3-1.1,0.1-1.4s1.1-0.3,1.4,0.1c0.1,0.1,5.6,6.6,12.5,6.6
			c0,0,0,0,0,0c3.7,0,7.3-1.9,10.5-5.8c0.4-0.4,1-0.5,1.4-0.1s0.5,1,0.1,1.4C97.7,132.3,93.6,134.4,89.3,134.4
			C89.3,134.4,89.3,134.4,89.3,134.4z"/>
	</g>
	<g>
		<path class="st5" d="M178,138.4c-0.5,0-0.9,0-1.4-0.1c-8.9-0.7-14.3-8.2-14.6-8.5c-0.3-0.4-0.2-1.1,0.2-1.4
			c0.5-0.3,1.1-0.2,1.4,0.2c0.1,0.1,5.1,7.1,13.1,7.7c5.5,0.5,11.2-2.2,16.9-7.8c0.4-0.4,1-0.4,1.4,0s0.4,1,0,1.4
			C189.4,135.6,183.7,138.4,178,138.4z"/>
	</g>
	<g>
		<path class="st5" d="M226,154.4c-0.7,0-1.3-0.1-1.9-0.4c-2.6-1.3-4.3-5.1-4.3-9.8c0-7.6,11.8-10.1,12.3-10.2
			c0.5-0.1,1.1,0.2,1.2,0.8c0.1,0.5-0.2,1.1-0.8,1.2c-0.1,0-10.7,2.2-10.7,8.2c0,3.9,1.3,7.1,3.2,8c1,0.5,2.1,0.3,3.3-0.7
			c1.9-1.6,1.8-3.2,1.2-4.3c-0.4-0.7-1.3-1.2-2.1-0.9c-0.5,0.2-1.1,0-1.3-0.5c-0.2-0.5,0-1.1,0.5-1.3c1.6-0.7,3.5,0,4.6,1.7
			c1.1,1.8,1.1,4.7-1.6,6.9C228.4,153.9,227.2,154.4,226,154.4z"/>
	</g>
	<g>
		<path class="st5" d="M51.4,160.7c-1.2,0-2.4-0.5-3.3-1.6c-2-2.4-1.5-4.9-0.1-6.4c1.2-1.3,2.8-1.6,3.8-0.8c0.4,0.3,0.5,1,0.2,1.4
			c-0.3,0.4-1,0.5-1.4,0.2c-0.1-0.1-0.6,0-1.2,0.6c-0.4,0.4-1.4,1.8,0.2,3.8c0.8,0.9,1.9,1.1,3,0.5c1.9-1,3.2-4.2,1.7-8.8
			c-2.4-7.5-10.3-5.2-10.7-5.1c-0.5,0.2-1.1-0.2-1.2-0.7c-0.2-0.5,0.1-1.1,0.7-1.2c3.5-1,10.8-1,13.1,6.5c1.8,5.7,0,9.7-2.7,11.1
			C52.9,160.5,52.1,160.7,51.4,160.7z"/>
	</g>
	<g>
		<circle class="st6" cx="91.4" cy="116.5" r="4.8"/>
	</g>
	<g>
		<circle class="st6" cx="180.8" cy="116.5" r="4.8"/>
	</g>
	<g>
		<g>
			<path class="st5" d="M129.9,191.9c-5.3,0-9.9-0.5-13.7-1.3c-11.8-2.3-18.6-6.7-18.9-6.8l-0.7-0.4l10.9-28.2
				c0.1-12.1,12.8-14.5,16.5-14.9l-0.4-28.7c0-0.6,0.4-1,1-1c0.5,0,1,0.4,1,1l0.4,30.6l-1,0c-0.6,0-15.5,0.9-15.5,13.2c0,0,0,0,0,0
				c0,4.3,1.6,7.9,4.7,10.6c5.1,4.3,13.8,6,23.3,4.5c3.9-0.6,6.5-2.1,7.8-4.5c2.2-4.2-0.4-10-0.4-10.1l1.7-1l19.7,28.7l-1.1,0.5
				C151.7,190,139.7,191.9,129.9,191.9z M99.1,182.5c4.4,2.5,29.3,15.1,64.3,0.2l-15.1-22c0.2,2,0,4.2-1.1,6.2
				c-1.6,3-4.7,4.9-9.3,5.6c-10.1,1.6-19.4-0.3-24.9-5c-2.5-2.2-4.2-4.9-5-8L99.1,182.5z"/>
		</g>
		<g>
			<path class="st5" d="M128.1,204.7c-6.7,0-10.9-1.6-12.6-4.7c-2.3-4.1,1-9.2,1.1-9.4c0.3-0.5,0.9-0.6,1.4-0.3
				c0.5,0.3,0.6,0.9,0.3,1.4c0,0-2.7,4.3-1,7.4c1.3,2.4,5.1,3.6,10.9,3.6c0.6,0,1,0.4,1,1S128.7,204.7,128.1,204.7z"/>
		</g>
	</g>
	<g>
		<circle class="st7" cx="87.7" cy="149.1" r="7.8"/>
	</g>
	<g>
		<circle class="st7" cx="177.6" cy="154.1" r="7.8"/>
	</g>
</g>
</svg>
